<?xml version="1.0" encoding="utf-8"?>
<!-- Generator: Adobe Illustrator 24.1.0, SVG Export Plug-In . SVG Version: 6.00 Build 0)  -->
<svg version="1.1" id="Calque_1" xmlns="http://www.w3.org/2000/svg" xmlns:xlink="http://www.w3.org/1999/xlink" x="0px" y="0px"
	 viewBox="0 0 792 612" style="enable-background:new 0 0 792 612;" xml:space="preserve">
<style type="text/css">
	.st0{fill:#0F0F0F;}
	.st1{fill:#464898;}
</style>
<g>
	<path class="st0" d="M672.57,360.28c-2.67,0-4.83-0.84-6.51-2.52c-1.68-1.68-2.52-3.84-2.52-6.51v-96.77c0-2.8,0.84-5.01,2.52-6.61
		c1.67-1.61,3.84-2.42,6.51-2.42c2.66,0,4.79,0.8,6.4,2.42c1.61,1.61,2.42,3.81,2.42,6.61v96.77c0,2.67-0.81,4.83-2.42,6.51
		S675.23,360.28,672.57,360.28z"/>
</g>
<g>
	<path class="st0" d="M175.32,299.03c0.21,4.64-0.12,9.28-1.65,13.9c-2.29,6.93-6.37,13.19-12.24,18.8
		c-5.87,5.6-12.29,9.37-19.26,11.28c-6.97,1.92-13.9,1.91-20.79-0.03c-6.88-1.94-13.03-5.74-18.45-11.42
		c-5.41-5.66-8.93-11.99-10.55-18.95c-1.62-6.97-1.36-13.95,0.79-20.92c2.14-6.98,6.14-13.27,12.01-18.87
		c5.87-5.6,12.36-9.34,19.49-11.2c4.75-1.25,9.43-1.33,14.08-0.88l-15.7-16.44c-0.94,0.18-1.88,0.28-2.82,0.51
		c-9.86,2.44-18.89,7.58-27.08,15.41c-8.1,7.73-13.59,16.46-16.49,26.2c-2.9,9.73-3.15,19.5-0.75,29.31c2.39,9.8,7.5,18.81,15.33,27
		c7.73,8.1,16.44,13.57,26.13,16.41c9.69,2.85,19.46,3.05,29.31,0.6c9.86-2.44,18.83-7.53,26.93-15.26
		c8.1-7.93,13.6-16.77,16.5-26.49c0.29-0.99,0.24-1.98,0.48-2.96L175.32,299.03z"/>
</g>
<g>
	<g>
		
			<rect x="143.07" y="264.31" transform="matrix(0.75 -0.6614 0.6614 0.75 -138.0412 176.5286)" class="st1" width="42.86" height="13.12"/>
	</g>
</g>
<g>
	<path class="st0" d="M312.23,353.54c-0.14,2.09-1.26,3.98-3.36,5.66c-1.96,1.68-4.03,2.42-6.2,2.21c-2.16-0.21-4.02-1.29-5.55-3.26
		l-42.21-51.93l-14.05,12.64v32.57c0,2.66-0.82,4.8-2.42,6.4c-1.62,1.61-3.68,2.42-6.2,2.42c-2.65,0-4.79-0.81-6.4-2.42
		c-1.61-1.6-2.41-3.74-2.41-6.4V205.11c0-2.66,0.79-4.79,2.41-6.4c1.61-1.6,3.75-2.42,6.4-2.42c2.53,0,4.58,0.82,6.2,2.42
		c1.6,1.61,2.42,3.74,2.42,6.4v92.14l56.47-50.99c1.81-1.68,3.77-2.44,5.87-2.31c2.1,0.13,4,1.11,5.67,2.94
		c1.68,1.82,2.45,3.77,2.31,5.88c-0.14,2.1-1.13,3.92-2.94,5.45l-40.74,36.67l42.63,52.56C311.67,349.4,312.37,351.43,312.23,353.54
		z"/>
</g>
<g>
	<path class="st0" d="M629.59,291.18v60.25c0,2.66-0.82,4.8-2.42,6.4c-1.62,1.61-3.74,2.42-6.41,2.42c-2.65,0-4.82-0.81-6.5-2.42
		c-1.68-1.6-2.52-3.74-2.52-6.4v-60.25c0-9.65-2.45-17.1-7.35-22.35c-4.9-5.24-11.19-7.87-18.9-7.87c-8.26,0-15,2.76-20.25,8.29
		c-5.09,5.38-7.66,12.43-7.67,21.15c0,0.25,0.01,0.52,0.01,0.78v60.25c0,2.66-0.84,4.8-2.53,6.4c-1.67,1.61-3.85,2.42-6.51,2.42
		c-2.52,0-4.65-0.81-6.39-2.42c-1.75-1.6-2.63-3.74-2.63-6.4v-60.25c0-9.65-2.45-17.1-7.35-22.35c-4.9-5.24-11.2-7.87-18.88-7.87
		c-8.27,0-15.05,2.73-20.36,8.18c-5.33,5.46-7.98,12.54-7.98,21.2v61.09c0,2.66-0.82,4.8-2.42,6.4c-1.61,1.61-3.74,2.42-6.4,2.42
		c-2.66,0-4.83-0.81-6.51-2.42c-1.68-1.6-2.52-3.74-2.52-6.4v-96.98c0-2.65,0.84-4.83,2.52-6.5c1.68-1.69,3.85-2.53,6.51-2.53
		c2.66,0,4.79,0.84,6.4,2.53c1.6,1.67,2.42,3.85,2.42,6.5v3.02c2.63-2.89,5.64-5.38,9.03-7.43c6.43-3.92,13.71-5.88,21.82-5.88
		s15.33,1.89,21.63,5.67c5.29,3.18,9.62,7.52,12.98,13.02c3.64-5.33,8.31-9.61,14-12.81c6.93-3.92,14.79-5.88,23.62-5.88
		c8.11,0,15.32,1.89,21.62,5.67c6.29,3.77,11.19,9.21,14.69,16.27C627.84,273.16,629.59,281.53,629.59,291.18z"/>
</g>
<g>
	<path class="st1" d="M672.36,224.64c-3.36,0-6.23-1.19-8.61-3.57c-2.37-2.37-3.56-5.31-3.56-8.82c0-3.49,1.22-6.41,3.67-8.71
		c2.44-2.31,5.35-3.46,8.71-3.46c3.21,0,6.05,1.15,8.5,3.46c2.44,2.31,3.67,5.22,3.67,8.71c0,3.5-1.23,6.44-3.67,8.82
		C678.62,223.45,675.72,224.64,672.36,224.64z"/>
</g>
<g>
	<g>
		<path class="st0" d="M423.14,256.39c-7.97-7.97-19.72-11.96-35.03-11.96c-13.85,0-24.76,2.74-35.46,7.35
			c-2.1,0.84-4.4,3.36-4.4,6.71c0,3.77,3.36,6.93,7.13,6.93c0.84,0,1.89-0.21,2.94-0.63c7.98-3.58,17.21-6.08,28.12-6.08
			c20.34,0,32.31,10.05,32.31,29.58v5.97c-7.54-9.02-18.86-14.76-31.51-14.76c-22.66,0-41.07,18.42-41.07,41.07
			c0,22.66,18.41,41.07,41.07,41.07c12.33,0,23.41-5.46,30.95-14.09l-0.36,6.11c0,4.19,1.79,7.62,6.4,7.62
			c4.41,0,9.12-2.35,9.12-6.96l0.94-66.24C434.27,274.22,430.49,263.74,423.14,256.39z M387.23,348.52
			c-15.41,0-27.95-12.54-27.95-27.96c0-15.41,12.54-27.95,27.95-27.95c15.41,0,27.95,12.54,27.95,27.95
			C415.17,335.99,402.64,348.52,387.23,348.52z"/>
	</g>
</g>
</svg>
