<?xml version="1.0" encoding="utf-8"?>
<!-- Generator: Adobe Illustrator 24.1.0, SVG Export Plug-In . SVG Version: 6.00 Build 0)  -->
<svg version="1.1" id="Calque_1" xmlns="http://www.w3.org/2000/svg" xmlns:xlink="http://www.w3.org/1999/xlink" x="0px" y="0px"
	 viewBox="0 0 300 300" style="enable-background:new 0 0 300 300;" xml:space="preserve">
<style type="text/css">
	.st0{fill:#1DAA1A;}
	.st1{fill:#FE446B;}
	.st2{fill:#FED525;}
	.st3{fill:#88F4FF;}
	.st4{fill:#FF712B;}
	.st5{fill:#AF79FF;}
	.st6{fill:#96FF6E;}
</style>
<g>
	<path class="st0" d="M234,158.95c-12.54,0-25.08,0-37.62,0c-6.13,0-12.22,0.37-18.09,2.39c-5.07,1.75-9.48,4.68-13.85,7.71
		c-8.91,6.17-17.85,12.28-26.73,18.49c-10.02,7.01-21.12,10.49-33.33,10.49c-13.82,0-27.64,0.03-41.46,0.04
		c-12.77,0.01-25.55,0.01-38.32-0.01c-0.92,0-1.89-0.03-2.74-0.31c-2.28-0.75-3.43-2.9-3.08-5.46c0.28-2.08,2.23-3.74,4.58-3.9
		c0.39-0.03,0.77-0.01,1.16-0.01c26.52,0,53.03,0.01,79.55-0.02c8.66-0.01,16.95-1.65,24.38-6.34c4.35-2.75,8.58-5.67,12.84-8.57
		c7.99-5.44,15.9-11.02,23.96-16.36c7.58-5.02,16.11-7.33,25.13-7.57c8.51-0.23,17.03-0.18,25.54-0.19
		c19.78-0.02,39.56-0.01,59.34,0.01c0.95,0,1.96,0.08,2.84,0.4c2.13,0.8,3.23,3.06,2.81,5.4c-0.37,2.09-2.31,3.75-4.53,3.8
		c-1.7,0.04-3.41,0.02-5.11,0.02C258.85,158.95,246.43,158.95,234,158.95C234,158.95,234,158.95,234,158.95z"/>
	<path d="M241.93,112.28c-0.08,1.23-0.14,2.29-0.21,3.36c2.43-3.03,5.63-4.2,9.32-4.21c3.71-0.01,7,0.91,8.84,4.64
		c3.68-4.88,8.56-5.36,13.85-4.03c3.68,0.93,5.68,3.63,5.56,7.43c-0.15,4.87-0.5,9.74-0.75,14.61c-0.14,2.66-0.24,5.33-0.36,8.09
		c-3.77,0-7.5,0-11.39,0c0.12-1.85,0.25-3.68,0.34-5.52c0.19-3.79,0.38-7.58,0.53-11.37c0.03-0.65-0.06-1.31-0.16-1.96
		c-0.21-1.48-0.9-2.33-2.09-2.61c-1.36-0.33-2.63,0.14-3.46,1.31c-1.19,1.68-1.54,3.62-1.64,5.6c-0.22,4.33-0.36,8.66-0.54,12.99
		c-0.02,0.5-0.06,0.99-0.09,1.57c-3.81,0-7.54,0-11.44,0c0.11-1.71,0.24-3.42,0.33-5.13c0.2-3.94,0.4-7.88,0.57-11.83
		c0.03-0.69-0.06-1.39-0.19-2.07c-0.25-1.2-0.81-2.2-2.14-2.46c-1.35-0.26-2.43,0.24-3.25,1.32c-1.12,1.48-1.49,3.23-1.59,5.02
		c-0.26,4.68-0.46,9.35-0.68,14.03c-0.02,0.34-0.03,0.69-0.05,1.12c-3.84,0-7.64,0-11.49,0c0.47-9.97,0.93-19.88,1.4-29.88
		C234.66,112.28,238.23,112.28,241.93,112.28z"/>
	<path d="M145.25,111.57c0-3.1,0-6.33,0-9.63c4.07,0,7.88,0,11.6,0c-0.71,13.41-1.41,26.79-2.12,40.25c-3.34,0-6.8,0-10.36,0
		c0-1.09,0-2.18,0-3.5c-0.45,0.39-0.76,0.66-1.06,0.92c-4,3.51-8.59,4.34-13.53,2.6c-4.95-1.75-7.22-5.69-7.9-10.68
		c-0.44-3.24,0.01-6.39,1.11-9.47c2.3-6.46,6.95-9.89,13.69-10.44C139.41,111.39,142.16,111.57,145.25,111.57z M144.67,119.51
		c-3.32-0.6-6.49-0.64-8.93,1.83c-2.53,2.56-3.33,5.82-2.39,9.33c1.02,3.81,5.66,5.01,8.36,2.13c0.89-0.95,1.54-2.24,1.95-3.49
		C144.68,126.19,144.6,122.92,144.67,119.51z"/>
	<path d="M64.92,143.05c-3.1,0-6.1-0.54-8.92-1.84c-5.91-2.71-9.12-8.96-8.15-15.75c1.04-7.3,5.94-12.24,13.53-13.63
		c3.72-0.68,7.39-0.52,11,0.66c7.76,2.54,10.73,8.96,10.1,16.05c-0.71,7.89-6.02,13.56-15.24,14.39
		C66.47,143,65.69,143.01,64.92,143.05z M71.18,126.79c-0.06-0.02-0.12-0.03-0.18-0.05c-0.02-0.42-0.02-0.85-0.07-1.27
		c-0.37-3.09-2.1-5.04-4.73-5.33c-2.99-0.33-5.49,1.22-6.3,4.26c-0.45,1.68-0.59,3.51-0.45,5.25c0.21,2.72,2.21,4.68,4.58,4.95
		c2.82,0.32,5.12-0.99,6.13-3.68C70.66,129.6,70.85,128.17,71.18,126.79z"/>
	<path d="M207.68,143.26c-2.12-0.37-4.29-0.58-6.37-1.15c-7.13-1.93-11.24-7.97-10.82-15.34c0.48-8.45,6.34-14.09,15.22-15.18
		c2.87-0.35,5.72-0.15,8.51,0.62c7.27,2.01,11.31,7.48,11.08,15.02c-0.27,8.97-6.19,15.06-15.26,15.7
		c-0.77,0.05-1.55,0.08-2.32,0.12C207.71,143.12,207.69,143.19,207.68,143.26z M201.81,127.81c0.06,0.02,0.12,0.04,0.18,0.07
		c0.08,0.69,0.14,1.38,0.25,2.07c0.41,2.45,2.17,4.3,4.4,4.64c2.59,0.4,4.92-0.77,6.05-3.1c0.99-2.03,1.26-4.19,0.94-6.43
		c-0.38-2.67-1.98-4.47-4.39-4.88c-2.64-0.45-5.14,0.76-6.19,3.22C202.46,124.8,202.22,126.34,201.81,127.81z"/>
	<path d="M116.04,142.19c-3.85,0-7.55,0-11.28,0c0.27-4.38,0.53-8.69,0.81-13.21c-2.58,0.95-5.03,1.73-7.38,2.76
		c-1.39,0.61-1.9,1.92-1.59,3.03c0.31,1.12,1.26,1.79,2.81,1.78c1.1-0.01,2.2-0.21,3.41-0.34c-0.59,2.03-1.17,4.09-1.79,6.14
		c-0.05,0.17-0.42,0.32-0.65,0.36c-2.73,0.41-5.48,0.54-8.19-0.09c-3.83-0.89-6.11-3.42-6.73-7.37c-0.5-3.2,1.4-6.84,4.62-8.73
		c2.61-1.53,5.53-2.16,8.44-2.82c1.55-0.35,3.1-0.69,4.62-1.13c1.68-0.49,2.4-1.43,2.22-2.67c-0.16-1.11-1.22-2.04-2.81-1.91
		c-2.72,0.22-5.44,0.63-8.12,1.15c-1.61,0.31-3.15,0.99-4.81,1.53c0.34-2.39,0.66-4.68,1.02-6.96c0.03-0.2,0.31-0.47,0.52-0.51
		c6.73-1.36,13.45-2.72,20.32-0.91c0.11,0.03,0.22,0.07,0.33,0.1c3.72,1.22,5.49,3.55,5.36,7.45c-0.15,4.41-0.53,8.81-0.76,13.22
		C116.24,136.08,116.16,139.09,116.04,142.19z"/>
	<path d="M186.8,121.39c-1.92-0.41-3.67-0.9-5.46-1.14c-1.21-0.16-2.49-0.14-3.69,0.07c-2.9,0.5-4.79,2.23-5.19,5.17
		c-0.22,1.57-0.18,3.26,0.15,4.82c0.53,2.51,2.81,4.12,5.82,4c2.48-0.1,4.95-0.66,7.49-1.03c-0.03,0.22-0.08,0.69-0.16,1.16
		c-0.34,2.18-0.66,4.36-1.06,6.52c-0.07,0.4-0.43,0.99-0.76,1.07c-4.21,1.02-8.5,1.48-12.77,0.58c-5.41-1.14-8.75-4.58-9.99-9.95
		c-1.01-4.38-0.73-8.7,1.04-12.86c2.18-5.13,6.22-7.7,11.69-8.21c3.77-0.35,7.49-0.05,11.19,0.72c0.91,0.19,1.3,0.55,1.32,1.51
		C186.5,116.32,186.67,118.82,186.8,121.39z"/>
	<path class="st1" d="M93.05,172.01c0.06-6.97,5.66-12.58,12.45-12.49c6.85,0.09,12.37,5.84,12.3,12.82
		c-0.07,7.01-5.72,12.48-12.8,12.41C98.38,184.67,92.99,178.93,93.05,172.01z"/>
	<path class="st2" d="M59.4,172.01c0.06-6.97,5.66-12.58,12.45-12.49c6.85,0.09,12.37,5.84,12.3,12.82
		c-0.07,7.01-5.72,12.48-12.8,12.41C64.74,184.67,59.34,178.93,59.4,172.01z"/>
	<path class="st3" d="M25.66,172.01c0.06-6.97,5.66-12.58,12.45-12.49c6.85,0.09,12.37,5.84,12.3,12.82
		c-0.07,7.01-5.72,12.48-12.8,12.41C30.99,184.67,25.59,178.93,25.66,172.01z"/>
	<path class="st4" d="M194.27,187.56c-6.79,0-12.38-5.68-12.38-12.59c0-6.8,5.73-12.6,12.44-12.59c6.76,0.01,12.33,5.73,12.32,12.66
		C206.64,181.99,201.13,187.56,194.27,187.56z"/>
	<path class="st5" d="M226.14,187.56c-6.79,0-12.38-5.68-12.38-12.59c0-6.8,5.73-12.6,12.44-12.59c6.76,0.01,12.33,5.73,12.32,12.66
		C238.51,181.99,233,187.56,226.14,187.56z"/>
	<path class="st6" d="M257.6,187.56c-6.79,0-12.38-5.68-12.38-12.59c0-6.8,5.73-12.6,12.44-12.59c6.76,0.01,12.33,5.73,12.32,12.66
		C269.98,181.99,264.47,187.56,257.6,187.56z"/>
	<path d="M24.59,112.24c3.45,0,7.01,0,10.65,0c0,0.96,0,1.9,0,2.84c0.1,0.09,0.21,0.18,0.31,0.27c0.31-0.41,0.59-0.86,0.95-1.23
		c2.14-2.15,4.7-3.07,7.71-2.54c0.3,0.05,0.78,0.37,0.79,0.59c0.16,3.08,0.25,6.16,0.37,9.32c-0.72-0.12-1.32-0.25-1.93-0.33
		c-4.42-0.55-7.75,2.03-8.19,6.69c-0.37,3.96-0.38,7.95-0.54,11.93c-0.03,0.77,0,1.54,0,2.39c-3.84,0-7.65,0-11.35,0
		C23.77,132.2,24.17,122.28,24.59,112.24z"/>
</g>
</svg>
