<?xml version="1.0" encoding="utf-8"?>
<!-- Generator: Adobe Illustrator 24.1.0, SVG Export Plug-In . SVG Version: 6.00 Build 0)  -->
<svg version="1.1" id="Calque_1" xmlns="http://www.w3.org/2000/svg" xmlns:xlink="http://www.w3.org/1999/xlink" x="0px" y="0px"
	 viewBox="0 0 300 300" style="enable-background:new 0 0 300 300;" xml:space="preserve">
<style type="text/css">
	.st0{fill:#5785A6;}
	.st1{fill:#020101;}
	.st2{fill:none;stroke:#020101;stroke-width:0.75;stroke-miterlimit:10;}
</style>
<g>
	<path d="M145.1,80.19c-8.94,1.91-17.84,3.98-26.7,6.2c-8.86,2.21-17.7,4.54-26.38,7.36c-2.17,0.71-4.32,1.46-6.44,2.28
		c-2.12,0.82-4.23,1.69-6.2,2.77c-0.98,0.54-1.95,1.14-2.7,1.88c-0.36,0.37-0.69,0.8-0.71,1.19c-0.06,0.38,0.19,0.75,0.59,1.06
		c0.8,0.62,1.9,0.98,2.96,1.29c1.08,0.3,2.19,0.52,3.3,0.72c4.47,0.74,9.03,1.04,13.59,1.26c4.56,0.21,9.12,0.3,13.68,0.33
		c18.26,0.15,36.53-0.51,54.79-1.23c9.13-0.37,18.26-0.79,27.38-1.26c9.13-0.43,18.26-0.9,27.38-1.4
		c-9.12,0.66-18.23,1.3-27.35,1.89c-9.12,0.56-18.25,1.08-27.38,1.54c-9.13,0.47-18.26,0.81-27.4,1.08
		c-9.14,0.26-18.28,0.44-27.43,0.38c-4.57-0.04-9.15-0.15-13.72-0.37c-4.57-0.24-9.15-0.55-13.69-1.32
		c-1.14-0.2-2.27-0.43-3.39-0.75c-1.11-0.34-2.25-0.68-3.27-1.47c-0.25-0.2-0.49-0.45-0.68-0.76c-0.17-0.32-0.29-0.71-0.23-1.09
		c0.09-0.77,0.55-1.28,0.97-1.72c0.88-0.86,1.89-1.45,2.91-2.02c4.1-2.17,8.47-3.61,12.82-5.02
		C109.28,87.62,127.18,83.76,145.1,80.19z"/>
</g>
<g>
	<path d="M84.51,134.99c-0.22-4.06,0.07-8.19,1.18-12.18c0.55-1.99,1.42-3.94,2.8-5.57c0.71-0.8,1.57-1.5,2.57-1.95
		c0.99-0.45,2.1-0.68,3.18-0.62c2.14,0.12,4.23,0.87,5.89,2.24c1.64,1.4,2.72,3.33,3.27,5.34c1.08,4.04,0.8,8.25-0.14,12.2
		c0.28-2.02,0.42-4.05,0.34-6.06c-0.06-2.01-0.31-4.03-0.93-5.92c-0.64-1.87-1.61-3.64-3.11-4.86c-1.49-1.21-3.44-1.86-5.35-1.95
		c-1.92-0.12-3.76,0.72-5.04,2.17c-1.29,1.46-2.11,3.31-2.75,5.2c-0.64,1.9-1.04,3.89-1.34,5.89
		C84.77,130.93,84.6,132.95,84.51,134.99z"/>
</g>
<g>
	<path d="M119.68,136.53c0.49-3.59,1.34-7.15,2.7-10.56c0.68-1.7,1.52-3.36,2.7-4.84c0.57-0.75,1.31-1.39,2.13-1.92
		c0.87-0.48,1.88-0.75,2.9-0.65c0.25,0.01,0.49,0.1,0.73,0.16c0.24,0.07,0.5,0.1,0.71,0.23c0.43,0.23,0.91,0.39,1.27,0.69
		c0.81,0.52,1.48,1.18,2.13,1.85c0.59,0.71,1.21,1.41,1.71,2.18c0.26,0.38,0.54,0.75,0.78,1.13l0.7,1.18
		c1.84,3.16,3.28,6.5,4.53,9.91c-0.85-1.61-1.58-3.26-2.48-4.83c-0.41-0.8-0.83-1.6-1.3-2.37c-0.45-0.78-0.89-1.56-1.4-2.3
		c-0.49-0.76-0.98-1.5-1.53-2.2c-0.51-0.74-1.12-1.38-1.7-2.04c-1.22-1.23-2.65-2.39-4.26-2.58c-0.8-0.08-1.59,0.12-2.31,0.51
		c-0.7,0.45-1.35,0.99-1.89,1.68c-1.13,1.33-1.96,2.92-2.72,4.54c-0.75,1.63-1.36,3.32-1.91,5.04
		C120.59,133.03,120.12,134.77,119.68,136.53z"/>
</g>
<g>
	<path d="M154.25,135.56c0.49-3.59,1.34-7.15,2.7-10.56c0.68-1.7,1.52-3.36,2.7-4.84c0.57-0.75,1.31-1.39,2.13-1.92
		c0.87-0.48,1.88-0.75,2.9-0.65c0.25,0.01,0.49,0.1,0.73,0.16c0.24,0.07,0.5,0.1,0.71,0.23c0.43,0.23,0.91,0.39,1.27,0.69
		c0.81,0.52,1.48,1.18,2.13,1.85c0.59,0.71,1.21,1.41,1.71,2.18c0.26,0.38,0.54,0.75,0.78,1.13l0.7,1.18
		c1.84,3.16,3.28,6.5,4.53,9.91c-0.85-1.61-1.58-3.26-2.48-4.83c-0.41-0.8-0.83-1.6-1.3-2.37c-0.45-0.78-0.89-1.56-1.4-2.3
		c-0.49-0.76-0.98-1.5-1.53-2.2c-0.51-0.74-1.12-1.38-1.7-2.04c-1.22-1.23-2.65-2.39-4.26-2.58c-0.8-0.08-1.59,0.12-2.31,0.51
		c-0.7,0.45-1.35,0.99-1.89,1.68c-1.13,1.33-1.96,2.92-2.72,4.54c-0.75,1.63-1.36,3.32-1.91,5.04
		C155.17,132.06,154.7,133.81,154.25,135.56z"/>
</g>
<g>
	<path d="M187.34,134.64c0.49-3.59,1.34-7.15,2.7-10.56c0.68-1.7,1.52-3.36,2.7-4.84c0.57-0.75,1.31-1.39,2.13-1.92
		c0.87-0.48,1.88-0.75,2.9-0.65c0.25,0.01,0.49,0.1,0.73,0.16c0.24,0.07,0.5,0.1,0.71,0.23c0.43,0.23,0.91,0.39,1.27,0.69
		c0.81,0.52,1.48,1.18,2.13,1.85c0.59,0.71,1.21,1.41,1.71,2.18c0.26,0.38,0.54,0.75,0.78,1.13l0.7,1.18
		c1.84,3.16,3.28,6.5,4.53,9.91c-0.85-1.61-1.58-3.26-2.48-4.83c-0.41-0.8-0.83-1.6-1.3-2.37c-0.45-0.78-0.89-1.56-1.4-2.3
		c-0.49-0.76-0.98-1.5-1.53-2.2c-0.51-0.74-1.12-1.38-1.7-2.04c-1.22-1.23-2.65-2.39-4.26-2.58c-0.8-0.08-1.59,0.12-2.31,0.51
		c-0.7,0.45-1.35,0.99-1.89,1.68c-1.13,1.33-1.96,2.92-2.72,4.54c-0.75,1.63-1.36,3.32-1.91,5.04
		C188.26,131.14,187.78,132.88,187.34,134.64z"/>
</g>
<g>
	<path d="M85.26,167.37c-0.22-4.06,0.07-8.19,1.18-12.18c0.55-1.99,1.42-3.94,2.8-5.57c0.71-0.8,1.57-1.5,2.57-1.95
		c0.99-0.45,2.1-0.68,3.18-0.62c2.14,0.12,4.23,0.87,5.89,2.24c1.64,1.4,2.72,3.33,3.27,5.34c1.08,4.04,0.8,8.25-0.14,12.2
		c0.28-2.02,0.42-4.05,0.34-6.06c-0.06-2.01-0.31-4.03-0.93-5.92c-0.64-1.87-1.61-3.64-3.11-4.86c-1.49-1.21-3.44-1.86-5.35-1.95
		c-1.92-0.12-3.76,0.72-5.04,2.17c-1.29,1.46-2.11,3.31-2.75,5.2c-0.64,1.9-1.04,3.89-1.34,5.89
		C85.52,163.31,85.35,165.33,85.26,167.37z"/>
</g>
<g>
	<path d="M120.43,170.58c0.49-3.59,1.34-7.15,2.7-10.56c0.68-1.7,1.52-3.36,2.7-4.84c0.57-0.75,1.31-1.39,2.13-1.92
		c0.87-0.48,1.88-0.75,2.9-0.65c0.25,0.01,0.49,0.1,0.73,0.16c0.24,0.07,0.5,0.1,0.71,0.23c0.43,0.23,0.91,0.39,1.27,0.69
		c0.81,0.52,1.48,1.18,2.13,1.85c0.59,0.71,1.21,1.41,1.71,2.18c0.26,0.38,0.54,0.75,0.78,1.13l0.7,1.18
		c1.84,3.16,3.28,6.5,4.53,9.91c-0.85-1.61-1.58-3.26-2.48-4.83c-0.41-0.8-0.83-1.6-1.3-2.37c-0.45-0.78-0.89-1.56-1.4-2.3
		c-0.49-0.76-0.98-1.5-1.53-2.2c-0.51-0.74-1.12-1.38-1.7-2.04c-1.22-1.23-2.65-2.39-4.26-2.58c-0.8-0.08-1.59,0.12-2.31,0.51
		c-0.7,0.45-1.35,0.99-1.89,1.68c-1.13,1.33-1.96,2.92-2.72,4.54c-0.75,1.63-1.36,3.32-1.91,5.04
		C121.35,167.08,120.87,168.83,120.43,170.58z"/>
</g>
<g>
	<path d="M155.01,172.97c0.49-3.59,1.34-7.15,2.7-10.56c0.68-1.7,1.52-3.36,2.7-4.84c0.57-0.75,1.31-1.39,2.13-1.92
		c0.87-0.48,1.88-0.75,2.9-0.65c0.25,0.01,0.49,0.1,0.73,0.16c0.24,0.07,0.5,0.1,0.71,0.23c0.43,0.23,0.91,0.39,1.27,0.69
		c0.81,0.52,1.48,1.18,2.13,1.85c0.59,0.71,1.21,1.41,1.71,2.18c0.26,0.38,0.54,0.75,0.78,1.13l0.7,1.18
		c1.84,3.16,3.28,6.5,4.53,9.91c-0.85-1.61-1.58-3.26-2.48-4.83c-0.41-0.8-0.83-1.6-1.3-2.37c-0.45-0.78-0.89-1.56-1.4-2.3
		c-0.49-0.76-0.98-1.5-1.53-2.2c-0.51-0.74-1.12-1.38-1.7-2.04c-1.22-1.23-2.65-2.39-4.26-2.58c-0.8-0.08-1.59,0.12-2.31,0.51
		c-0.7,0.45-1.35,0.99-1.89,1.68c-1.13,1.33-1.96,2.92-2.72,4.54c-0.75,1.63-1.36,3.32-1.91,5.04
		C155.92,169.46,155.45,171.21,155.01,172.97z"/>
</g>
<g>
	<path d="M188.09,173.72c0.49-3.59,1.34-7.15,2.7-10.56c0.68-1.7,1.52-3.36,2.7-4.84c0.57-0.75,1.31-1.39,2.13-1.92
		c0.87-0.48,1.88-0.75,2.9-0.65c0.25,0.01,0.49,0.1,0.73,0.16c0.24,0.07,0.5,0.1,0.71,0.23c0.43,0.23,0.91,0.39,1.27,0.69
		c0.81,0.52,1.48,1.18,2.13,1.85c0.59,0.71,1.21,1.41,1.71,2.18c0.26,0.38,0.54,0.75,0.78,1.13l0.7,1.18
		c1.84,3.16,3.28,6.5,4.53,9.91c-0.85-1.61-1.58-3.26-2.48-4.83c-0.41-0.8-0.83-1.6-1.3-2.37c-0.45-0.78-0.89-1.56-1.4-2.3
		c-0.49-0.76-0.98-1.5-1.53-2.2c-0.51-0.74-1.12-1.38-1.7-2.04c-1.22-1.23-2.65-2.39-4.26-2.58c-0.8-0.08-1.59,0.12-2.31,0.51
		c-0.7,0.45-1.35,0.99-1.89,1.68c-1.13,1.33-1.96,2.92-2.72,4.54c-0.75,1.63-1.36,3.32-1.91,5.04
		C189.01,170.21,188.54,171.96,188.09,173.72z"/>
</g>
<g>
	<path d="M78.86,131.82c-0.36,0.69-0.59,1.47-0.44,2.24c0.14,0.78,0.66,1.4,1.2,1.94c1.16,1.03,2.6,1.7,4.04,2.27
		c2.91,1.12,5.98,1.78,9.04,2.38c6.14,1.16,12.36,1.85,18.59,2.4c12.46,1.08,24.97,1.65,37.47,2.01
		c12.51,0.42,25.02,0.59,37.54,0.76l18.78,0.23c6.26,0.1,12.52,0.19,18.78,0.36c-6.26-0.01-12.52,0.07-18.78,0.13l-18.78,0.05
		c-12.52-0.01-25.05-0.19-37.57-0.53c-12.52-0.44-25.04-1-37.51-2.24c-6.23-0.65-12.46-1.42-18.61-2.68
		c-3.06-0.68-6.13-1.42-9.03-2.63c-1.44-0.61-2.88-1.32-4.04-2.41c-0.54-0.56-1.06-1.22-1.18-2.01
		C78.23,133.28,78.48,132.5,78.86,131.82z"/>
</g>
<g>
	<path class="st0" d="M92.94,201.24c-0.31,0.31-0.76,0.55-1.36,0.72c-0.59,0.17-1.3,0.25-2.13,0.25c-0.83,0-1.61-0.12-2.35-0.37
		c-0.74-0.25-1.34-0.84-1.81-1.78l-3.31-6.77c-0.34-0.69-0.64-1.34-0.9-1.96c-0.27-0.61-0.56-1.32-0.87-2.13l-0.2,0.03
		c0.09,1.21,0.14,2.43,0.15,3.68c0.01,1.25,0.02,2.48,0.02,3.68v5.19c-0.25,0.07-0.62,0.13-1.12,0.2c-0.5,0.07-1,0.1-1.49,0.1
		s-0.93-0.03-1.31-0.1c-0.38-0.07-0.69-0.2-0.94-0.4s-0.44-0.47-0.57-0.82c-0.13-0.35-0.2-0.8-0.2-1.36v-16.75
		c0.31-0.45,0.79-0.78,1.44-1c0.65-0.22,1.34-0.34,2.08-0.34c0.83,0,1.61,0.13,2.36,0.38c0.75,0.26,1.35,0.84,1.79,1.76l3.35,6.76
		c0.34,0.69,0.64,1.35,0.9,1.96c0.27,0.61,0.56,1.32,0.87,2.13l0.17-0.03c-0.09-1.21-0.15-2.41-0.17-3.62
		c-0.02-1.21-0.03-2.41-0.03-3.62v-5.43c0.25-0.07,0.62-0.13,1.12-0.2c0.5-0.07,1-0.1,1.49-0.1c0.98,0,1.73,0.17,2.24,0.52
		c0.51,0.35,0.77,1.07,0.77,2.16V201.24z"/>
	<path class="st0" d="M105.47,202.48c-1.32,0-2.54-0.18-3.67-0.55c-1.13-0.37-2.11-0.92-2.95-1.66c-0.84-0.74-1.5-1.66-1.98-2.78
		c-0.48-1.12-0.72-2.42-0.72-3.92c0-1.47,0.24-2.74,0.72-3.8c0.48-1.06,1.11-1.93,1.89-2.61c0.78-0.68,1.67-1.18,2.68-1.51
		c1-0.32,2.03-0.48,3.08-0.48c1.18,0,2.26,0.18,3.23,0.53c0.97,0.36,1.81,0.85,2.51,1.47c0.7,0.63,1.25,1.37,1.64,2.24
		c0.39,0.87,0.59,1.82,0.59,2.85c0,0.76-0.21,1.34-0.64,1.74s-1.02,0.66-1.77,0.77l-8.27,1.24c0.25,0.74,0.75,1.29,1.51,1.66
		c0.76,0.37,1.63,0.55,2.61,0.55c0.92,0,1.78-0.12,2.6-0.35c0.82-0.24,1.48-0.51,1.99-0.82c0.36,0.22,0.66,0.54,0.9,0.94
		c0.25,0.4,0.37,0.83,0.37,1.27c0,1-0.47,1.75-1.41,2.24c-0.71,0.38-1.52,0.64-2.41,0.77C107.09,202.42,106.25,202.48,105.47,202.48
		z M104.53,189.32c-0.54,0-1,0.09-1.39,0.27c-0.39,0.18-0.71,0.41-0.95,0.69c-0.25,0.28-0.43,0.59-0.55,0.94
		c-0.12,0.35-0.2,0.7-0.22,1.05l5.73-0.94c-0.07-0.45-0.31-0.89-0.74-1.34C105.98,189.54,105.36,189.32,104.53,189.32z"/>
	<path class="st0" d="M123.05,185.17c0.91,0,1.81,0.13,2.7,0.38c0.88,0.26,1.65,0.64,2.29,1.16c0.67-0.45,1.42-0.82,2.26-1.11
		c0.84-0.29,1.85-0.44,3.03-0.44c0.85,0,1.68,0.11,2.5,0.33c0.81,0.22,1.54,0.58,2.18,1.05c0.64,0.48,1.14,1.12,1.52,1.91
		c0.38,0.79,0.57,1.76,0.57,2.9v10.55c-0.22,0.07-0.58,0.13-1.05,0.2c-0.48,0.07-0.98,0.1-1.49,0.1c-0.49,0-0.93-0.03-1.32-0.1
		c-0.39-0.07-0.72-0.2-0.99-0.4s-0.47-0.47-0.62-0.82c-0.15-0.35-0.22-0.8-0.22-1.36v-8c0-0.67-0.19-1.16-0.57-1.46
		c-0.38-0.3-0.89-0.45-1.54-0.45c-0.31,0-0.65,0.07-1,0.22c-0.36,0.15-0.63,0.3-0.8,0.45c0.02,0.09,0.03,0.17,0.03,0.25
		c0,0.08,0,0.15,0,0.22v11.15c-0.25,0.07-0.61,0.13-1.09,0.2c-0.48,0.07-0.97,0.1-1.46,0.1s-0.93-0.03-1.32-0.1
		c-0.39-0.07-0.72-0.2-0.99-0.4s-0.47-0.47-0.62-0.82c-0.15-0.35-0.22-0.8-0.22-1.36v-8c0-0.67-0.21-1.16-0.62-1.46
		c-0.41-0.3-0.91-0.45-1.49-0.45c-0.4,0-0.75,0.06-1.04,0.18c-0.29,0.12-0.54,0.24-0.74,0.35v11.76c-0.22,0.07-0.57,0.13-1.05,0.2
		c-0.48,0.07-0.98,0.1-1.49,0.1c-0.49,0-0.93-0.03-1.32-0.1c-0.39-0.07-0.72-0.2-0.99-0.4s-0.48-0.47-0.62-0.82
		c-0.15-0.35-0.22-0.8-0.22-1.36v-10.11c0-0.6,0.13-1.08,0.38-1.44c0.26-0.36,0.61-0.69,1.05-1.01c0.76-0.53,1.7-0.97,2.83-1.31
		C120.65,185.33,121.83,185.17,123.05,185.17z"/>
	<path class="st0" d="M150.28,185.17c1.21,0,2.3,0.12,3.3,0.37c0.99,0.25,1.84,0.62,2.54,1.12c0.7,0.5,1.24,1.14,1.63,1.91
		c0.38,0.77,0.57,1.68,0.57,2.73v7.5c0,0.58-0.16,1.05-0.49,1.42c-0.32,0.37-0.71,0.69-1.16,0.96c-1.45,0.87-3.49,1.31-6.13,1.31
		c-1.18,0-2.25-0.11-3.2-0.34c-0.95-0.22-1.76-0.56-2.44-1.01c-0.68-0.44-1.21-1.02-1.57-1.71s-0.55-1.5-0.55-2.41
		c0-1.54,0.46-2.72,1.37-3.55c0.92-0.83,2.33-1.34,4.25-1.54l4.39-0.47v-0.24c0-0.65-0.28-1.11-0.86-1.39
		c-0.57-0.28-1.39-0.42-2.46-0.42c-0.85,0-1.67,0.09-2.48,0.27c-0.8,0.18-1.53,0.4-2.18,0.67c-0.29-0.2-0.53-0.51-0.74-0.92
		c-0.2-0.41-0.3-0.84-0.3-1.29c0-0.58,0.14-1.04,0.42-1.39c0.28-0.35,0.71-0.64,1.29-0.89c0.65-0.25,1.41-0.43,2.29-0.54
		C148.67,185.22,149.5,185.17,150.28,185.17z M150.55,198.33c0.38,0,0.8-0.04,1.26-0.12c0.46-0.08,0.8-0.18,1.02-0.32v-2.68
		l-2.41,0.2c-0.63,0.05-1.14,0.18-1.54,0.4c-0.4,0.22-0.6,0.56-0.6,1.01c0,0.45,0.17,0.81,0.52,1.09
		C149.14,198.19,149.72,198.33,150.55,198.33z"/>
	<path class="st0" d="M161.8,185.9c0.22-0.07,0.57-0.13,1.05-0.2c0.48-0.07,0.98-0.1,1.49-0.1c0.49,0,0.93,0.03,1.32,0.1
		c0.39,0.07,0.72,0.2,0.99,0.4c0.27,0.2,0.47,0.47,0.62,0.82c0.15,0.35,0.22,0.8,0.22,1.36v7.2c0,0.92,0.22,1.57,0.67,1.96
		c0.45,0.39,1.09,0.59,1.94,0.59c0.51,0,0.93-0.04,1.26-0.13c0.32-0.09,0.57-0.18,0.75-0.27V185.9c0.22-0.07,0.57-0.13,1.05-0.2
		c0.48-0.07,0.98-0.1,1.49-0.1c0.49,0,0.93,0.03,1.32,0.1c0.39,0.07,0.72,0.2,0.99,0.4c0.27,0.2,0.47,0.47,0.62,0.82
		c0.15,0.35,0.22,0.8,0.22,1.36v10.18c0,1.12-0.47,1.95-1.41,2.51c-0.78,0.49-1.71,0.87-2.8,1.12c-1.08,0.26-2.26,0.39-3.53,0.39
		c-1.21,0-2.32-0.13-3.33-0.4c-1.02-0.27-1.89-0.68-2.63-1.24c-0.74-0.56-1.31-1.28-1.71-2.16c-0.4-0.88-0.6-1.95-0.6-3.2V185.9z"/>
	<path class="st0" d="M195.03,197.09c0,1.7-0.64,3.03-1.91,3.99c-1.27,0.96-3.15,1.44-5.63,1.44c-0.94,0-1.81-0.07-2.61-0.2
		c-0.8-0.13-1.49-0.34-2.06-0.62c-0.57-0.28-1.02-0.63-1.34-1.05c-0.32-0.42-0.49-0.93-0.49-1.51c0-0.54,0.11-0.99,0.34-1.36
		c0.22-0.37,0.49-0.68,0.8-0.92c0.65,0.36,1.39,0.68,2.23,0.96s1.8,0.42,2.9,0.42c0.69,0,1.22-0.1,1.59-0.3
		c0.37-0.2,0.55-0.47,0.55-0.8c0-0.31-0.13-0.56-0.4-0.74c-0.27-0.18-0.71-0.32-1.34-0.44l-1-0.2c-1.94-0.38-3.39-0.98-4.34-1.79
		c-0.95-0.82-1.42-1.98-1.42-3.5c0-0.83,0.18-1.57,0.54-2.24c0.36-0.67,0.86-1.23,1.51-1.67c0.65-0.45,1.42-0.79,2.33-1.04
		c0.9-0.25,1.9-0.37,3-0.37c0.83,0,1.6,0.06,2.33,0.18c0.72,0.12,1.36,0.31,1.89,0.55s0.96,0.56,1.27,0.95
		c0.31,0.39,0.47,0.86,0.47,1.39c0,0.51-0.09,0.96-0.28,1.32c-0.19,0.37-0.43,0.68-0.72,0.92c-0.18-0.11-0.45-0.23-0.8-0.35
		c-0.36-0.12-0.75-0.23-1.17-0.33c-0.42-0.1-0.85-0.18-1.29-0.25c-0.44-0.07-0.83-0.1-1.19-0.1c-0.74,0-1.31,0.09-1.71,0.25
		c-0.4,0.17-0.6,0.43-0.6,0.79c0,0.25,0.11,0.45,0.33,0.6c0.22,0.16,0.65,0.3,1.27,0.44l1.04,0.24c2.14,0.49,3.67,1.17,4.57,2.03
		C194.58,194.62,195.03,195.73,195.03,197.09z"/>
	<path class="st0" d="M197.78,185.9c0.22-0.07,0.57-0.13,1.05-0.2c0.48-0.07,0.98-0.1,1.49-0.1c0.49,0,0.93,0.03,1.32,0.1
		c0.39,0.07,0.72,0.2,0.99,0.4c0.27,0.2,0.47,0.47,0.62,0.82c0.15,0.35,0.22,0.8,0.22,1.36v7.2c0,0.92,0.22,1.57,0.67,1.96
		c0.45,0.39,1.09,0.59,1.94,0.59c0.51,0,0.93-0.04,1.26-0.13c0.32-0.09,0.57-0.18,0.75-0.27V185.9c0.22-0.07,0.57-0.13,1.05-0.2
		c0.48-0.07,0.98-0.1,1.49-0.1c0.49,0,0.93,0.03,1.32,0.1c0.39,0.07,0.72,0.2,0.99,0.4c0.27,0.2,0.47,0.47,0.62,0.82
		c0.15,0.35,0.22,0.8,0.22,1.36v10.18c0,1.12-0.47,1.95-1.41,2.51c-0.78,0.49-1.71,0.87-2.8,1.12c-1.08,0.26-2.26,0.39-3.53,0.39
		c-1.21,0-2.32-0.13-3.33-0.4c-1.02-0.27-1.89-0.68-2.63-1.24c-0.74-0.56-1.31-1.28-1.71-2.16c-0.4-0.88-0.6-1.95-0.6-3.2V185.9z"/>
	<path class="st0" d="M231,197.09c0,1.7-0.64,3.03-1.91,3.99c-1.27,0.96-3.15,1.44-5.63,1.44c-0.94,0-1.81-0.07-2.61-0.2
		c-0.8-0.13-1.49-0.34-2.06-0.62c-0.57-0.28-1.02-0.63-1.34-1.05c-0.32-0.42-0.49-0.93-0.49-1.51c0-0.54,0.11-0.99,0.33-1.36
		c0.22-0.37,0.49-0.68,0.8-0.92c0.65,0.36,1.39,0.68,2.23,0.96c0.84,0.28,1.8,0.42,2.9,0.42c0.69,0,1.22-0.1,1.59-0.3
		c0.37-0.2,0.55-0.47,0.55-0.8c0-0.31-0.13-0.56-0.4-0.74c-0.27-0.18-0.71-0.32-1.34-0.44l-1-0.2c-1.94-0.38-3.39-0.98-4.34-1.79
		c-0.95-0.82-1.42-1.98-1.42-3.5c0-0.83,0.18-1.57,0.54-2.24c0.36-0.67,0.86-1.23,1.51-1.67c0.65-0.45,1.42-0.79,2.33-1.04
		c0.9-0.25,1.9-0.37,3-0.37c0.83,0,1.6,0.06,2.33,0.18s1.36,0.31,1.89,0.55c0.54,0.25,0.96,0.56,1.27,0.95
		c0.31,0.39,0.47,0.86,0.47,1.39c0,0.51-0.09,0.96-0.28,1.32c-0.19,0.37-0.43,0.68-0.72,0.92c-0.18-0.11-0.45-0.23-0.8-0.35
		c-0.36-0.12-0.75-0.23-1.17-0.33c-0.43-0.1-0.86-0.18-1.29-0.25c-0.44-0.07-0.83-0.1-1.19-0.1c-0.74,0-1.31,0.09-1.71,0.25
		c-0.4,0.17-0.6,0.43-0.6,0.79c0,0.25,0.11,0.45,0.34,0.6c0.22,0.16,0.65,0.3,1.27,0.44l1.04,0.24c2.14,0.49,3.67,1.17,4.57,2.03
		C230.55,194.62,231,195.73,231,197.09z"/>
</g>
<g>
	<path class="st1" d="M119.23,216.91c-1-1.14-1.5-2.51-1.5-4.12c0-1.61,0.5-2.99,1.5-4.14c0.99-1.13,2.18-1.7,3.59-1.7
		c1.16,0,2.14,0.31,2.94,0.94c0.8,0.61,1.29,1.44,1.48,2.47h-0.75c-0.14-0.77-0.56-1.42-1.25-1.93c-0.69-0.51-1.49-0.77-2.42-0.77
		c-1.2,0-2.22,0.5-3.07,1.5c-0.85,1.01-1.27,2.22-1.27,3.63c0,1.41,0.43,2.62,1.27,3.63c0.85,1,1.87,1.5,3.07,1.5
		c1.02,0,1.87-0.3,2.53-0.9c0.67-0.6,1.05-1.4,1.14-2.4h0.75c-0.1,1.21-0.56,2.18-1.37,2.9c-0.8,0.72-1.82,1.09-3.05,1.09
		C121.42,218.61,120.22,218.04,119.23,216.91z"/>
	<path class="st1" d="M129.33,217.34c-0.69-0.75-1.03-1.75-1.03-3c0-1.29,0.34-2.32,1.03-3.11c0.67-0.77,1.58-1.16,2.71-1.16
		c1.12,0,2.03,0.39,2.71,1.16c0.67,0.79,1.01,1.82,1.01,3.11c0,1.25-0.34,2.25-1.01,3c-0.69,0.75-1.59,1.12-2.71,1.12
		C130.9,218.46,130,218.09,129.33,217.34z M134.21,216.89c0.54-0.64,0.8-1.48,0.8-2.55c0-1.1-0.27-1.97-0.8-2.62
		c-0.55-0.66-1.27-0.99-2.17-0.99c-0.91,0-1.64,0.33-2.17,0.99c-0.55,0.65-0.82,1.52-0.82,2.62c0,1.06,0.27,1.91,0.82,2.55
		c0.54,0.64,1.26,0.96,2.17,0.96C132.94,217.84,133.66,217.52,134.21,216.89z"/>
	<path class="st1" d="M137.66,218.33v-7.98h0.75v1.35c0.23-0.47,0.57-0.85,1.03-1.12c0.46-0.29,0.97-0.43,1.54-0.43
		c0.79,0,1.45,0.26,2,0.77c0.56,0.52,0.84,1.15,0.84,1.87v5.54h-0.75v-5.54c0-0.55-0.21-1.02-0.62-1.4
		c-0.41-0.39-0.9-0.58-1.48-0.58c-0.62,0-1.18,0.21-1.67,0.64c-0.49,0.44-0.79,0.98-0.9,1.63v5.26H137.66z"/>
	<path class="st1" d="M146.33,217.79c-0.6-0.5-0.9-1.1-0.9-1.82h0.69c0,0.54,0.23,1,0.69,1.39c0.46,0.37,1.02,0.56,1.67,0.56
		c0.75,0,1.35-0.17,1.82-0.51c0.45-0.35,0.67-0.8,0.67-1.37c0-0.42-0.24-0.79-0.71-1.09c-0.47-0.29-1.11-0.47-1.91-0.54
		c-0.85-0.08-1.52-0.31-2.02-0.71c-0.51-0.4-0.77-0.89-0.77-1.48c0-0.66,0.26-1.17,0.77-1.54c0.51-0.36,1.23-0.54,2.15-0.54
		c0.89,0,1.59,0.19,2.12,0.58c0.54,0.39,0.8,0.9,0.8,1.55h-0.71c-0.09-0.49-0.33-0.87-0.71-1.14c-0.39-0.27-0.89-0.41-1.5-0.41
		c-0.67,0-1.21,0.14-1.61,0.41s-0.6,0.64-0.6,1.09c0,0.42,0.24,0.79,0.73,1.09c0.47,0.29,1.11,0.47,1.91,0.54
		c0.84,0.08,1.51,0.32,2.02,0.75c0.5,0.42,0.75,0.96,0.75,1.59c0,0.71-0.29,1.28-0.88,1.7c-0.57,0.42-1.35,0.64-2.32,0.64
		C147.63,218.53,146.91,218.28,146.33,217.79z"/>
	<path class="st1" d="M154.12,217.8c-0.54-0.49-0.8-1.07-0.8-1.76v-5.69h0.75v5.69c0,0.51,0.19,0.96,0.58,1.33
		c0.39,0.36,0.85,0.54,1.4,0.54c0.65,0,1.23-0.25,1.74-0.75c0.51-0.5,0.84-1.13,0.97-1.89v-4.92h0.75v7.98h-0.75v-1.4
		c-0.22,0.49-0.59,0.88-1.09,1.18c-0.49,0.29-1.03,0.43-1.63,0.43C155.29,218.53,154.65,218.29,154.12,217.8z"/>
	<path class="st1" d="M161.9,218.33v-11.1h0.75v11.1H161.9z"/>
	<path class="st1" d="M165.55,218.1c-0.29-0.33-0.43-0.72-0.43-1.2v-5.97h-1.14v-0.58h1.14v-2.27h0.75v2.27h1.09v0.58h-1.09v5.97
		c0,0.31,0.08,0.58,0.24,0.8c0.15,0.23,0.34,0.34,0.56,0.34c0.24,0,0.43-0.04,0.58-0.13v0.54c-0.27,0.1-0.49,0.15-0.64,0.15
		C166.21,218.61,165.85,218.44,165.55,218.1z"/>
	<path class="st1" d="M168.59,207.23h0.75v1.14h-0.75V207.23z M168.59,218.33v-7.98h0.75v7.98H168.59z"/>
	<path class="st1" d="M171.73,218.33v-7.98h0.75v1.35c0.22-0.47,0.57-0.85,1.03-1.12c0.46-0.29,0.97-0.43,1.53-0.43
		c0.79,0,1.45,0.26,2,0.77c0.56,0.52,0.84,1.15,0.84,1.87v5.54h-0.75v-5.54c0-0.55-0.21-1.02-0.62-1.4
		c-0.41-0.39-0.91-0.58-1.48-0.58c-0.62,0-1.18,0.21-1.67,0.64c-0.49,0.44-0.78,0.98-0.9,1.63v5.26H171.73z"/>
	<path class="st1" d="M180.68,220.43c-0.68-0.51-1.01-1.12-1.01-1.83h0.71c0,0.54,0.26,1,0.79,1.39c0.54,0.37,1.18,0.56,1.93,0.56
		c0.82,0,1.48-0.22,1.97-0.66c0.5-0.44,0.75-1.02,0.75-1.76v-1.63c-0.24,0.52-0.6,0.94-1.09,1.24c-0.5,0.31-1.04,0.47-1.61,0.47
		c-1.05,0-1.89-0.37-2.51-1.11c-0.64-0.75-0.96-1.73-0.96-2.96c0-1.22,0.32-2.21,0.96-2.96c0.62-0.74,1.46-1.11,2.51-1.11
		c0.61,0,1.17,0.16,1.67,0.49c0.49,0.32,0.83,0.76,1.03,1.29v-1.5h0.75v7.79c0,0.96-0.31,1.7-0.92,2.23c-0.6,0.54-1.45,0.8-2.55,0.8
		C182.15,221.17,181.34,220.92,180.68,220.43z M185.03,216.61c0.52-0.69,0.78-1.51,0.78-2.47c0-0.96-0.26-1.79-0.78-2.47
		c-0.52-0.67-1.16-1.01-1.91-1.01c-0.82,0-1.48,0.32-1.97,0.96c-0.5,0.64-0.75,1.48-0.75,2.53c0,1.05,0.25,1.89,0.75,2.53
		c0.49,0.64,1.14,0.96,1.97,0.96C183.87,217.62,184.5,217.28,185.03,216.61z"/>
</g>
<line class="st2" x1="75.73" y1="213.27" x2="112.23" y2="213.27"/>
<line class="st2" x1="192.36" y1="213.27" x2="228.86" y2="213.27"/>
</svg>
