<svg id="Calque_1" data-name="Calque 1" xmlns="http://www.w3.org/2000/svg" viewBox="0 0 53.94 19.04"><defs><style>.cls-1{opacity:0.47;}.cls-2{fill:#405ea8;}.cls-3,.cls-4{fill:#010101;}.cls-4{font-size:3.75px;font-family:SukhumvitSet-Light, Sukhumvit Set;font-weight:300;}.cls-5{letter-spacing:-0.01em;}.cls-6{letter-spacing:-0.01em;}</style></defs><g class="cls-1"><path class="cls-2" d="M37.49,25.23A3.68,3.68,0,0,1,36.21,29c-.76.58,0,1.88.76,1.29a5.21,5.21,0,0,0,2-5.48.75.75,0,0,0-1.44.4Z" transform="translate(-16.64 -15.7)"/></g><g class="cls-1"><path class="cls-2" d="M33.91,22.24c0-.59,1-.8,1.44-.8a1.09,1.09,0,0,1,1.17.92c.16.95,1.61.54,1.45-.4-.5-2.82-5.5-2.59-5.57.28a.76.76,0,0,0,1.51,0Z" transform="translate(-16.64 -15.7)"/></g><g class="cls-1"><path class="cls-2" d="M32,25c.14.53-.54,1-.89,1.33a3.11,3.11,0,0,1-1.52.82c-1,.17-.54,1.62.4,1.45a5,5,0,0,0,2.47-1.47,2.57,2.57,0,0,0,1-2.53A.75.75,0,0,0,32,25Z" transform="translate(-16.64 -15.7)"/></g><g class="cls-1"><path class="cls-2" d="M33.6,30.24A8.74,8.74,0,0,0,35,28.09a.77.77,0,0,0-.27-1,.75.75,0,0,0-1,.27,7.56,7.56,0,0,1-1.12,1.84.75.75,0,1,0,1.07,1.06Z" transform="translate(-16.64 -15.7)"/></g><g class="cls-1"><path class="cls-2" d="M36,25.82a6.34,6.34,0,0,0-.16-2.17c-.22-.94-1.67-.54-1.44.4a5.27,5.27,0,0,1,.1,1.77.75.75,0,0,0,1.5,0Z" transform="translate(-16.64 -15.7)"/></g><g class="cls-1"><path class="cls-2" d="M28.18,26.37c2.08-.15,3.2-2.86,3.38-4.63.1-1-1.4-.95-1.5,0a4.24,4.24,0,0,1-.57,1.77c-.22.4-.77,1.32-1.31,1.36-.95.07-1,1.57,0,1.5Z" transform="translate(-16.64 -15.7)"/></g><g class="cls-1"><path class="cls-2" d="M32.55,20.12a4,4,0,0,1,3.24-1.07c1,.1,1-1.4,0-1.5a5.44,5.44,0,0,0-4.3,1.51c-.7.67.36,1.73,1.06,1.06Z" transform="translate(-16.64 -15.7)"/></g><g class="cls-1"><path class="cls-2" d="M37.55,20.3c.53,0,.92.94,1.12,1.33a8.3,8.3,0,0,1,.71,1.91,8.8,8.8,0,0,1,0,4.05c-.22.94,1.23,1.34,1.45.4a10.4,10.4,0,0,0-.24-5.56c-.45-1.38-1.34-3.63-3.07-3.63a.75.75,0,0,0,0,1.5Z" transform="translate(-16.64 -15.7)"/></g><g class="cls-1"><path class="cls-2" d="M38.54,30a15,15,0,0,1-1.14,1.82.75.75,0,0,0,1.3.76,15.57,15.57,0,0,0,1.14-1.83c.45-.85-.85-1.61-1.3-.75Z" transform="translate(-16.64 -15.7)"/></g><g class="cls-1"><path class="cls-2" d="M28.79,23a4.66,4.66,0,0,1,1-2.64,7.85,7.85,0,0,1,1.71-2.05c.77-.57,0-1.88-.75-1.29a9.27,9.27,0,0,0-2.25,2.58A5.94,5.94,0,0,0,27.29,23c0,1,1.54,1,1.5,0Z" transform="translate(-16.64 -15.7)"/></g><g class="cls-1"><path class="cls-2" d="M34,17.22c.61,0,1.22,0,1.84,0a10,10,0,0,1,1.58.05c.57.76,1.88,0,1.3-.76a2.24,2.24,0,0,0-1.9-.75,26.53,26.53,0,0,0-2.82,0c-1,0-1,1.54,0,1.5Z" transform="translate(-16.64 -15.7)"/></g><g class="cls-1"><path class="cls-2" d="M39.69,18.64a12.66,12.66,0,0,1,1.76,8.68c-.15.94,1.29,1.35,1.45.4A14.31,14.31,0,0,0,41,17.88c-.51-.82-1.81-.07-1.3.76Z" transform="translate(-16.64 -15.7)"/></g><g class="cls-1"><path class="cls-2" d="M40.76,30.67A3.08,3.08,0,0,1,40,32.1a15.55,15.55,0,0,1-1.09,1.34c-.64.72.42,1.78,1.06,1.06.95-1.06,2.19-2.35,2.3-3.83.07-1-1.44-1-1.5,0Z" transform="translate(-16.64 -15.7)"/></g><path class="cls-3" d="M20.26,31.27a3.56,3.56,0,0,1-1.85-.47,3.43,3.43,0,0,1-1.3-1.29,3.71,3.71,0,0,1-.47-1.85,3.66,3.66,0,0,1,.47-1.85,3.5,3.5,0,0,1,1.3-1.29,3.66,3.66,0,0,1,1.85-.47,3.48,3.48,0,0,1,1.68.4,3,3,0,0,1,1.15,1.07v-4a.4.4,0,0,1,.11-.29.45.45,0,0,1,.28-.1.4.4,0,0,1,.28.1.4.4,0,0,1,.11.29v6.24a3.53,3.53,0,0,1-1.78,3.08A3.61,3.61,0,0,1,20.26,31.27Zm0-.72a2.86,2.86,0,0,0,1.46-.38,2.75,2.75,0,0,0,1-1,2.93,2.93,0,0,0,.37-1.48,2.88,2.88,0,0,0-.37-1.48,2.82,2.82,0,0,0-1-1,2.84,2.84,0,0,0-4.3,2.51,2.93,2.93,0,0,0,.37,1.48,2.8,2.8,0,0,0,1,1A2.85,2.85,0,0,0,20.26,30.55Z" transform="translate(-16.64 -15.7)"/><path class="cls-3" d="M29.43,31.27a3.62,3.62,0,0,1-1.86-.47,3.33,3.33,0,0,1-1.29-1.29,3.58,3.58,0,0,1-.47-1.84,3.62,3.62,0,0,1,.47-1.86,3.47,3.47,0,0,1,1.29-1.29,3.72,3.72,0,0,1,1.86-.47,3.69,3.69,0,0,1,1.85.47,3.52,3.52,0,0,1,1.28,1.29A3.62,3.62,0,0,1,33,27.67a3.58,3.58,0,0,1-.47,1.84,3.37,3.37,0,0,1-1.28,1.29A3.59,3.59,0,0,1,29.43,31.27Zm0-.72a2.83,2.83,0,0,0,1.45-.38,2.77,2.77,0,0,0,1-1,3,3,0,0,0,.37-1.48,3,3,0,0,0-.37-1.47,2.83,2.83,0,0,0-4.93,0,3.05,3.05,0,0,0,0,2.95,2.79,2.79,0,0,0,2.47,1.41Z" transform="translate(-16.64 -15.7)"/><path class="cls-3" d="M35.36,31.2a.39.39,0,0,1-.28-.11.41.41,0,0,1-.11-.28v-6.3a.38.38,0,0,1,.11-.28.39.39,0,0,1,.28-.1.36.36,0,0,1,.28.1.38.38,0,0,1,.11.28v6.3a.41.41,0,0,1-.11.28A.36.36,0,0,1,35.36,31.2Zm5.73,0a.38.38,0,0,1-.28-.11.41.41,0,0,1-.11-.28V27.33a2.72,2.72,0,0,0-.33-1.41,2.09,2.09,0,0,0-.89-.83,2.8,2.8,0,0,0-1.28-.28,2.83,2.83,0,0,0-1.25.27,2.18,2.18,0,0,0-.88.73,1.82,1.82,0,0,0-.32,1H35.1a3,3,0,0,1,.48-1.44,3.09,3.09,0,0,1,1.11-1A3.21,3.21,0,0,1,38.2,24a3.58,3.58,0,0,1,1.68.38,2.84,2.84,0,0,1,1.17,1.11,3.58,3.58,0,0,1,.42,1.8v3.48a.38.38,0,0,1-.38.39Z" transform="translate(-16.64 -15.7)"/><path class="cls-3" d="M44.06,31.2a.39.39,0,0,1-.28-.11.41.41,0,0,1-.11-.28V21.49a.4.4,0,0,1,.11-.29.43.43,0,0,1,.28-.1.41.41,0,0,1,.28.1.4.4,0,0,1,.11.29v9.32a.41.41,0,0,1-.11.28A.38.38,0,0,1,44.06,31.2ZM44.19,29l-.47-.52,4.73-4.3a.42.42,0,0,1,.26-.11.32.32,0,0,1,.24.13.42.42,0,0,1,.11.26.28.28,0,0,1-.13.23ZM49,31.13a.34.34,0,0,1-.27.1.35.35,0,0,1-.24-.15l-3.06-3.75.56-.45L49,30.63a.39.39,0,0,1,.1.26A.38.38,0,0,1,49,31.13Z" transform="translate(-16.64 -15.7)"/><path class="cls-3" d="M53.68,31.27a3.62,3.62,0,0,1-1.86-.47,3.33,3.33,0,0,1-1.29-1.29,3.58,3.58,0,0,1-.47-1.84,3.62,3.62,0,0,1,.47-1.86,3.47,3.47,0,0,1,1.29-1.29,3.72,3.72,0,0,1,1.86-.47,3.69,3.69,0,0,1,1.85.47,3.52,3.52,0,0,1,1.28,1.29,3.62,3.62,0,0,1,.47,1.86l-.32.52a2.89,2.89,0,0,1-.43,1.57,3.12,3.12,0,0,1-1.17,1.11A3.42,3.42,0,0,1,53.68,31.27Zm0-.72a2.83,2.83,0,0,0,1.45-.38,2.77,2.77,0,0,0,1-1,3.13,3.13,0,0,0,0-2.95,2.83,2.83,0,0,0-4.93,0,3.05,3.05,0,0,0,0,2.95,2.79,2.79,0,0,0,2.47,1.41Zm3.23.65a.4.4,0,0,1-.29-.11.37.37,0,0,1-.11-.28V28.44l.24-.77h.53v3.14a.4.4,0,0,1-.1.28A.37.37,0,0,1,56.91,31.2Z" transform="translate(-16.64 -15.7)"/><text class="cls-4" transform="translate(12.57 7.39)">c<tspan class="cls-5" x="1.72" y="0">r</tspan><tspan class="cls-6" x="3.06" y="0">é</tspan><tspan x="4.92" y="0">ation</tspan></text></svg>