<?xml version="1.0" encoding="utf-8"?>
<!-- Generator: Adobe Illustrator 24.1.0, SVG Export Plug-In . SVG Version: 6.00 Build 0)  -->
<svg version="1.1" id="Calque_1" xmlns="http://www.w3.org/2000/svg" xmlns:xlink="http://www.w3.org/1999/xlink" x="0px" y="0px"
	 viewBox="0 0 96 82" style="enable-background:new 0 0 96 82;" xml:space="preserve">
<style type="text/css">
	.st0{fill:#313358;}
	.st1{fill:#EA533D;}
	.st2{fill:#3FBDD0;}
</style>
<g>
	<g id="z6Y5Q4.tif">
		<g>
			<path class="st0" d="M50.68,28c0.26,0.12,0.54,0.21,0.77,0.37c0.55,0.36,0.73,0.91,0.73,1.54c0,2.25,0,4.49,0,6.74
				c0,0.18,0,0.36,0,0.5c0.78-0.27,1.5-0.62,2.25-0.75c3.23-0.54,6.49,1.86,6.86,5.1c0.18,1.55,0.1,3.12,0.13,4.69
				c0.01,0.51,0.01,1.02,0,1.53c-0.02,0.99-0.7,1.69-1.66,1.69c-0.95,0-1.67-0.7-1.68-1.69c-0.01-1.72,0-3.44,0-5.15
				c0-1.28-0.78-2.39-1.93-2.8c-1.14-0.4-2.56,0-3.33,0.97c-0.45,0.57-0.65,1.22-0.64,1.95c0.01,1.65,0.01,3.3,0,4.95
				c-0.01,1.25-0.98,2-2.15,1.7c-0.72-0.19-1.18-0.82-1.18-1.65c0-2.42,0-4.83,0-7.25c0-3.33,0.04-6.67-0.02-10
				c-0.02-1.23,0.3-2.09,1.55-2.44C50.48,28,50.58,28,50.68,28z"/>
			<path class="st0" d="M21.04,42.57c0.04-0.14-0.04-0.3,0-0.45c0.13-0.51,0.18-1.05,0.36-1.54c0.41-1.09,0.59-1.19,1.74-1.2
				c0.42-0.01,0.57,0.28,0.73,0.6c0.22,0.44,0.31,0.59,0.56,1.01c0.1,0.1,0.26,0.43,0.31,0.41c-0.02,0.14-0.03,0.06-0.06,0.26
				c0.9,0,1.8,0.05,2.62,0.05c0.62,0,0.41,0,0.41,0s0.98,1.28,1.59,1.44c0.7,0.19,1.03,0.64,0.99,1.33c-1.87,0-3.73,0-5.7,0
				c0.19,0.7,0.57,1.15,1.07,1.5c0.95,0.67,2.03,0.69,3.1,0.5c0.77-0.14,1.5-0.5,2.26-0.75c0.33-0.11,0.67-0.27,1.02-0.29
				c0.99-0.06,1.6,0.77,1.22,1.69c-0.15,0.36-0.4,0.74-0.71,0.97c-2.35,1.72-6.27,2.14-8.84,0.27c-1.55-1.12-2.25-2.65-2.55-4.5
				c-0.03-0.16-0.1-0.31-0.1-0.51C21.04,43.08,21.04,42.84,21.04,42.57z"/>
			<path class="st0" d="M76.16,42.95c0.07,3.23-2.49,6.6-6.67,6.65c-3.65,0.04-6.64-3.03-6.64-6.65c0-3.66,3.01-6.65,6.69-6.63
				C73.28,36.33,76.23,39.41,76.16,42.95z M72.83,42.93c-0.01-1.83-1.5-3.3-3.33-3.3c-1.81,0.01-3.33,1.53-3.32,3.33
				c0.01,1.8,1.55,3.31,3.35,3.3C71.35,46.25,72.83,44.75,72.83,42.93z"/>
			<path class="st0" d="M35.05,42.97c0.05-4.7,4.85-7.94,9.28-6.2c0.74,0.29,1.44,0.78,2.06,1.28c0.76,0.62,0.84,1.65,0.31,2.33
				c-0.61,0.77-1.51,0.89-2.42,0.3c-0.31-0.2-0.61-0.44-0.93-0.63c-1.41-0.8-3.15-0.45-4.14,0.82c-1.09,1.39-1,3.13,0.21,4.36
				c1.17,1.18,2.92,1.34,4.24,0.39c0.22-0.16,0.43-0.34,0.66-0.49c0.83-0.56,1.71-0.45,2.34,0.28c0.52,0.6,0.48,1.58-0.12,2.24
				c-0.97,1.07-2.22,1.61-3.62,1.84c-3.34,0.56-6.68-1.51-7.57-4.72C35.18,44.19,35.14,43.58,35.05,42.97z"/>
		</g>
	</g>
	<path class="st1" d="M21.04,42.12c0,0,0.21,0.62,0.82,0.62c0.62,0,1.54,0.51,1.54,0.92c0,0.41,1.23,0.82,1.23,0.82
		s0,0.62,1.03,1.44c0.4,0.32,1.45,0.73,2.26,0.62c0.81-0.11,2.35-0.52,3.69-1.03c0.3-0.12,0.92-0.21,1.44,0.21
		c0.23,0.18,1.22,1.3-0.92,2.67c-2.15,1.37-4.62,1.44-6.15,1.03c-1.11-0.3-2.75-0.91-3.89-2.76C20.94,44.79,20.94,43.15,21.04,42.12
		z"/>
	<path class="st2" d="M24.73,41.37c0,0-0.49-0.24-0.69-0.74c-0.2-0.49-0.2-1.08-0.79-1.08c-0.6,0-1.19,0.2-1.39,0.1
		c0,0,1.24-1.92,2.93-2.61s2.38-0.59,3.67-0.49c2.69,0.21,4.17,2.3,4.86,3.45c0.3,0.49,0.84,2.22,0.64,3.2s-0.99,1.08-1.49,1.18
		c-0.5,0.1-2.38,0.1-2.38,0.1s0.15-0.84-0.25-1.04c-0.4-0.2-1.39-0.39-1.59-0.69c-0.2-0.3-0.5-0.59-0.6-1.08h2.98
		c0,0-0.5-1.28-1.98-1.77c-0.69-0.23-1.29-0.2-1.79-0.1S25.04,40.45,24.73,41.37z"/>
</g>
</svg>
